<svg xmlns="http://www.w3.org/2000/svg" width="22.53" height="22.53" viewBox="0 0 22.53 22.53"><defs><style>.a{fill:none;stroke:#fff;stroke-linecap:round;stroke-linejoin:round;stroke-width:2px;}</style></defs><g transform="translate(1 1)"><path class="a" d="M10.157,0h0A10.373,10.373,0,0,1,20.53,10.373v6.638a3.519,3.519,0,0,1-3.519,3.519H3.519A3.519,3.519,0,0,1,0,17.011V10.157A10.157,10.157,0,0,1,10.157,0Z" transform="translate(0 0)"/><path class="a" d="M686.611,354.762l4.1,5.951a1.626,1.626,0,0,0,2.53.185h0a1.594,1.594,0,0,0-.361-2.46Z" transform="translate(-681.781 -348.449)"/><line class="a" x1="1.173" y2="1.76" transform="translate(13.857 4.693)"/></g></svg>