<svg xmlns="http://www.w3.org/2000/svg" width="10.5" height="12" viewBox="0 0 10.5 12"><defs><style>.a{fill:#3389ff;}</style></defs><path class="a" d="M10.172-8.953a1.085,1.085,0,0,1,.328.8v6.281a1.085,1.085,0,0,1-.328.8,1.085,1.085,0,0,1-.8.328H7.5V.375a1.085,1.085,0,0,1-.328.8,1.085,1.085,0,0,1-.8.328H1.125a1.085,1.085,0,0,1-.8-.328A1.085,1.085,0,0,1,0,.375v-7.5a1.085,1.085,0,0,1,.328-.8,1.085,1.085,0,0,1,.8-.328H3V-9.375a1.085,1.085,0,0,1,.328-.8,1.085,1.085,0,0,1,.8-.328H8.156a1.085,1.085,0,0,1,.8.328ZM6.234.375A.135.135,0,0,0,6.328.328.135.135,0,0,0,6.375.234V-.75H4.125a1.085,1.085,0,0,1-.8-.328A1.085,1.085,0,0,1,3-1.875v-5.25H1.266a.135.135,0,0,0-.094.047.135.135,0,0,0-.047.094V.234a.135.135,0,0,0,.047.094.135.135,0,0,0,.094.047Zm3-2.25a.135.135,0,0,0,.094-.047.135.135,0,0,0,.047-.094V-6.75H7.312a.542.542,0,0,1-.4-.164.542.542,0,0,1-.164-.4V-9.375H4.266a.135.135,0,0,0-.094.047.135.135,0,0,0-.047.094v7.219a.135.135,0,0,0,.047.094.135.135,0,0,0,.094.047Zm.141-6v-.234A.135.135,0,0,0,9.328-8.2L8.2-9.328a.135.135,0,0,0-.094-.047H7.875v1.5Z" transform="translate(0 10.5)"/></svg>