<svg xmlns="http://www.w3.org/2000/svg" width="12.594" height="12.594" viewBox="0 0 12.594 12.594"><defs><style>.a{fill:#3389ff;}</style></defs><path class="a" d="M6.5-11.172a6.1,6.1,0,0,1,3.148.851,6.363,6.363,0,0,1,2.3,2.3A6.1,6.1,0,0,1,12.8-4.875a6.1,6.1,0,0,1-.851,3.148,6.363,6.363,0,0,1-2.3,2.3A6.1,6.1,0,0,1,6.5,1.422,6.1,6.1,0,0,1,3.352.571a6.363,6.363,0,0,1-2.3-2.3A6.1,6.1,0,0,1,.2-4.875a6.1,6.1,0,0,1,.851-3.148,6.363,6.363,0,0,1,2.3-2.3A6.1,6.1,0,0,1,6.5-11.172ZM6.5.2A4.928,4.928,0,0,0,9.039-.482a5.121,5.121,0,0,0,1.854-1.854,4.928,4.928,0,0,0,.686-2.539,4.928,4.928,0,0,0-.686-2.539A5.121,5.121,0,0,0,9.039-9.268,4.928,4.928,0,0,0,6.5-9.953a4.928,4.928,0,0,0-2.539.686A5.121,5.121,0,0,0,2.107-7.414a4.928,4.928,0,0,0-.686,2.539,4.928,4.928,0,0,0,.686,2.539A5.121,5.121,0,0,0,3.961-.482,4.928,4.928,0,0,0,6.5.2Zm0-8.582a1.024,1.024,0,0,1,.749.317,1.024,1.024,0,0,1,.317.749,1.024,1.024,0,0,1-.317.749,1.024,1.024,0,0,1-.749.317,1.024,1.024,0,0,1-.749-.317,1.024,1.024,0,0,1-.317-.749,1.024,1.024,0,0,1,.317-.749A1.024,1.024,0,0,1,6.5-8.379ZM7.922-1.93a.294.294,0,0,1-.089.216.294.294,0,0,1-.216.089H5.383a.294.294,0,0,1-.216-.089.294.294,0,0,1-.089-.216v-.609a.294.294,0,0,1,.089-.216.294.294,0,0,1,.216-.089h.3V-4.469h-.3a.294.294,0,0,1-.216-.089.294.294,0,0,1-.089-.216v-.609A.294.294,0,0,1,5.167-5.6a.294.294,0,0,1,.216-.089H7.008a.294.294,0,0,1,.216.089.294.294,0,0,1,.089.216v2.539h.3a.294.294,0,0,1,.216.089.294.294,0,0,1,.089.216Z" transform="translate(-0.203 11.172)"/></svg>