<svg xmlns="http://www.w3.org/2000/svg" width="11" height="13" viewBox="0 0 11 13"><defs><style>.a,.c{fill:#3389ff;}.b,.c{stroke:none;}</style></defs><g class="a" transform="translate(11) rotate(90)"><path class="b" d="M 11.24755001068115 10.50000286102295 L 1.752450466156006 10.50000286102295 C 1.490380525588989 10.50000286102295 1.361450433731079 10.32363319396973 1.318180441856384 10.247802734375 C 1.274910449981689 10.17198276519775 1.188660502433777 9.97125244140625 1.321980476379395 9.74564266204834 L 6.069530487060547 1.711312770843506 C 6.200540542602539 1.489612817764282 6.414210319519043 1.465682864189148 6.500000476837158 1.465682864189148 C 6.585780620574951 1.465682864189148 6.799460411071777 1.489612817764282 6.93047046661377 1.711322784423828 L 11.67802047729492 9.745633125305176 C 11.81134033203125 9.97125244140625 11.72509002685547 10.17198276519775 11.6818208694458 10.247802734375 C 11.63855075836182 10.32363319396973 11.50962066650391 10.50000286102295 11.24755001068115 10.50000286102295 Z"/><path class="c" d="M 6.500000476837158 1.965682983398438 L 1.752442359924316 9.999999046325684 C 1.752443313598633 10 1.752444267272949 10.00000190734863 1.752445220947266 10.00000286102295 C 1.752447128295898 10.00000286102295 1.752449035644531 10.00000286102295 1.752450942993164 10.00000286102295 L 11.24755096435547 10.00000286102295 L 6.50001049041748 1.965692520141602 C 6.500008583068848 1.965689659118652 6.500006675720215 1.965685844421387 6.500004768371582 1.965682983398438 C 6.500003337860107 1.965682983398438 6.500001907348633 1.965682983398438 6.500000476837158 1.965682983398438 M 6.499996662139893 0.9656801223754883 C 6.833695411682129 0.9656801223754883 7.16739559173584 1.129437446594238 7.360930442810059 1.456953048706055 L 12.10848045349121 9.491272926330566 C 12.50239086151123 10.15788269042969 12.0218505859375 11.00000286102295 11.24755096435547 11.00000286102295 L 1.752450942993164 11.00000286102295 C 0.9781503677368164 11.00000286102295 0.4976100921630859 10.15788269042969 0.8915205001831055 9.491272926330566 L 5.639070510864258 1.456953048706055 C 5.832600593566895 1.129437446594238 6.166297912597656 0.9656801223754883 6.499996662139893 0.9656801223754883 Z"/></g></svg>