<svg xmlns="http://www.w3.org/2000/svg" width="12.797" height="12.594" viewBox="0 0 12.797 12.594"><defs><style>.a{fill:#3389ff;}</style></defs><path class="a" d="M.3-11.172a.294.294,0,0,0-.216.089A.294.294,0,0,0,0-10.867v4.875a.294.294,0,0,0,.089.216A.294.294,0,0,0,.3-5.687H5.18A.294.294,0,0,0,5.4-5.776a.294.294,0,0,0,.089-.216V-6.7A.294.294,0,0,0,5.4-6.919a.294.294,0,0,0-.216-.089l-3.225.076a4.99,4.99,0,0,1,1.828-2.12,4.845,4.845,0,0,1,2.717-.8,4.816,4.816,0,0,1,2.488.673A5.044,5.044,0,0,1,10.8-7.363a4.816,4.816,0,0,1,.673,2.488A4.816,4.816,0,0,1,10.8-2.387,5.044,5.044,0,0,1,8.988-.571,4.816,4.816,0,0,1,6.5.1a4.9,4.9,0,0,1-1.79-.33A4.728,4.728,0,0,1,3.2-1.168a.316.316,0,0,0-.229-.063.322.322,0,0,0-.2.089L2.26-.635a.292.292,0,0,0-.076.216.254.254,0,0,0,.1.216A6.264,6.264,0,0,0,4.215.99,6.16,6.16,0,0,0,6.5,1.422,6.1,6.1,0,0,0,9.648.571a6.394,6.394,0,0,0,2.3-2.285A6.06,6.06,0,0,0,12.8-4.862a6.2,6.2,0,0,0-.838-3.161,6.264,6.264,0,0,0-2.285-2.3,6.1,6.1,0,0,0-3.148-.851A6.21,6.21,0,0,0,3.5-10.41a6.291,6.291,0,0,0-2.26,2.057l.076-2.514a.294.294,0,0,0-.089-.216.294.294,0,0,0-.216-.089Z" transform="translate(0 11.172)"/></svg>