<svg xmlns="http://www.w3.org/2000/svg" width="19.555" height="28.14" viewBox="0 0 19.555 28.14"><defs><style>.a{fill:#fff;}</style></defs><g transform="translate(-1615.483 -822.161)"><path class="a" d="M11.7,27.5a3.873,3.873,0,0,1-1.17-2.623c0-.01,0-.02,0-.03v-7.5a.749.749,0,0,0-1.5.054v.033l0,0v7.414c0,.01,0,.02,0,.03A3.873,3.873,0,0,1,7.857,27.5a2.745,2.745,0,0,1-1.824.639,3.7,3.7,0,0,1-.459-.029,2.706,2.706,0,0,1-2.317-1.978,3.1,3.1,0,0,1,.869-3.187A.829.829,0,0,1,5.188,24.22a1.441,1.441,0,0,0-.339,1.446,1.054,1.054,0,0,0,.931.8,1.24,1.24,0,0,0,1-.223,2.227,2.227,0,0,0,.591-1.414V18.142a.735.735,0,0,0-1.466.073v.047h0v.7c0,.01,0,.02,0,.03a3.874,3.874,0,0,1-1.17,2.623,2.744,2.744,0,0,1-1.824.639,3.667,3.667,0,0,1-.46-.029A2.706,2.706,0,0,1,.128,20.244,3.1,3.1,0,0,1,1,17.057.829.829,0,1,1,2.06,18.331a1.441,1.441,0,0,0-.339,1.446,1.054,1.054,0,0,0,.931.8,1.238,1.238,0,0,0,1-.223,2.229,2.229,0,0,0,.591-1.414v-.914c-.274-1.3-2.064-3.446-2.249-5.569-.182-2.088,1.217-2.386,1.284-3.114.055-.6-1.165-.36-1.018-.905C3.782,2.762,9.782,0,9.786,0s6,2.762,7.53,8.437c.146.545-1.073.306-1.019.905.067.727,1.466,1.026,1.284,3.114-.2,2.245-2.08,4-2.266,5.775v.71a2.227,2.227,0,0,0,.591,1.412,1.24,1.24,0,0,0,1,.223,1.054,1.054,0,0,0,.931-.8,1.441,1.441,0,0,0-.339-1.446.829.829,0,1,1,1.062-1.274,3.1,3.1,0,0,1,.87,3.187,2.706,2.706,0,0,1-2.317,1.977,3.673,3.673,0,0,1-.46.029,2.745,2.745,0,0,1-1.824-.639,3.873,3.873,0,0,1-1.17-2.623c0-.01,0-.02,0-.03v-.7h0v-.047a.735.735,0,0,0-1.466-.067v6.681a2.228,2.228,0,0,0,.591,1.412,1.239,1.239,0,0,0,1,.223,1.054,1.054,0,0,0,.931-.8,1.441,1.441,0,0,0-.339-1.446.829.829,0,1,1,1.062-1.275,3.1,3.1,0,0,1,.87,3.187,2.706,2.706,0,0,1-2.317,1.978,3.7,3.7,0,0,1-.46.029A2.745,2.745,0,0,1,11.7,27.5Z" transform="translate(1615.483 822.161)"/></g></svg>